<svg xmlns="http://www.w3.org/2000/svg"  viewBox="0 0 48 48" width="480px" height="480px"><path fill="#d6e5e5" d="M10.257,44.084c5,0,3.146,0.164,7.645,0.16c3.752-0.004,5.49-0.348,8.18-0.195	c2.228,0.127,3.827,0.069,6.058,0.119c3.9,0.087,8.458,0.929,10.98-2.203c1.402-1.741,1.51-4.322,1.618-6.494	c0.108-2.172-0.313-6.429-0.416-8.601c-0.254-5.348-0.1-4.617,0.128-10.251c0.083-2.056,0.094-9.43-1.193-11.035	c-1.24-1.545-3.227-2.06-6.598-2.017c-4.447,0.057-6.296,0.676-10.743,0.653c-1.699-0.009-5.477-0.043-7.176-0.052	c-1.371-0.007-4.179-0.339-5.55-0.318c-1.275,0.02-4.203,0.099-5.508,0.205c-1.305,0.106-2.747,1.108-3.32,2.286	C4.117,6.843,4.047,7.409,3.918,7.952c-0.242,1.02,0.394,4.838,0.352,8.82c-0.054,5.174,0.054,11.494,0.041,14.143	c-0.016,3.513-0.391,6.083-0.055,8.169C4.741,42.086,6.348,44.277,10.257,44.084"/><path fill="#f26322" d="M25.3,39.329c3.179-0.062,5.607-0.077,8.786-0.139c0.745-0.015,2.678,0.092,3.155-0.485	c0.122-0.148,0.179-0.346,0.209-0.534c1.038-6.393-0.117-9.889,0.057-15.283c1.353-0.008,3.475-0.185,3.475-0.602	c-0.114-1.525-2.327-2.13-3.402-3.217c-0.859-0.869-0.187-3.682-0.629-7.559c-0.089-0.781-3.766-0.376-3.766,0.528	c0,0.957-0.316,2.771-0.124,3.718c-2.338-1.84-4.675-3.68-7.013-5.52c-0.413-0.325-0.839-0.657-1.342-0.811	c-1.666-0.509-1.836,0.19-4.388,2.284c-4.16,3.415-7.904,5.74-11.994,10.582c-0.118,0.14-0.211,0.322-0.185,0.504	c0.039,0.275,0.337,0.478,0.615,0.489c1.097,0.045,1.213-0.079,2.397-0.004c0.22,0.014,0.741-0.012,0.911,0.13	c0.16,0.134,0.18,0.368,0.187,0.576c0.168,4.869-0.148,12.279,0.028,14.559c0.034,0.442,0.36,0.797,0.796,0.874	C15.16,39.789,21.281,39.746,25.3,39.329"/><path fill="#f58420" d="M24.901,36.49c2.868-0.045,4.984-0.253,7.853-0.298c0.797-0.012,1.775-0.143,2.063-0.887	c0.092-0.237,0.091-0.499,0.089-0.753c-0.007-0.799-0.143-2.11-0.15-2.909c-0.032-3.704,0.293-6.524,0.261-10.228	c-0.003-0.294-0.007-0.598-0.127-0.867c-0.227-0.509-0.791-0.756-1.29-1.002c-3.138-1.54-5.333-4.563-8.418-6.206	c-0.159-0.085-0.329-0.167-0.509-0.158c-0.186,0.009-0.352,0.116-0.507,0.219c-2.232,1.488-3.606,2.99-5.705,4.661	c-1.091,0.868-2.407,1.987-3.089,3.377c-0.202,0.411-0.131,2.199-0.236,4.686c-0.133,3.157-0.032,6.05,0.065,9.209	c0.007,0.233,0.023,0.478,0.153,0.672c0.233,0.348,0.721,0.388,1.14,0.392C19.296,36.429,22.098,36.46,24.901,36.49"/><path fill="#010101" d="M36.548,44.833c-0.86,0-1.722-0.044-2.557-0.087c-0.63-0.032-1.254-0.064-1.861-0.078	c-0.811-0.019-1.537-0.021-2.241-0.025c-1.237-0.007-2.406-0.013-3.835-0.095c-1.45-0.083-2.634-0.018-4.004,0.06	c-1.145,0.063-2.441,0.135-4.146,0.137c-2.257,0.012-2.895-0.036-3.615-0.077c-0.731-0.04-1.486-0.083-4.02-0.083	c-3.7,0.18-5.896-1.646-6.505-5.42c-0.221-1.368-0.147-2.935-0.062-4.747c0.049-1.04,0.104-2.219,0.11-3.504	c0.005-0.99-0.008-2.493-0.021-4.257c-0.024-2.961-0.054-6.647-0.021-9.89c0.021-2.014-0.134-3.993-0.258-5.583	c-0.131-1.67-0.217-2.772-0.08-3.348c0.031-0.132,0.06-0.266,0.087-0.4c0.09-0.434,0.184-0.882,0.394-1.312	C4.566,4.78,6.17,3.678,7.641,3.558c1.345-0.11,4.368-0.188,5.542-0.207c0.748-0.016,1.901,0.078,3.016,0.165	c0.987,0.076,1.92,0.149,2.545,0.152l7.176,0.052c2.277,0.003,3.871-0.147,5.537-0.315c1.501-0.152,3.054-0.31,5.196-0.337	c3.675-0.057,5.701,0.592,6.994,2.204c1.637,2.037,1.307,11.274,1.304,11.367c-0.061,1.49-0.116,2.536-0.16,3.367	c-0.122,2.309-0.154,2.93,0.031,6.84c0.032,0.668,0.094,1.534,0.161,2.476c0.155,2.177,0.331,4.644,0.255,6.174l-0.005,0.104	c-0.107,2.156-0.24,4.84-1.723,6.68C41.787,44.418,39.18,44.833,36.548,44.833z M24.692,43.51c0.452,0,0.919,0.012,1.418,0.04	c1.403,0.08,2.56,0.086,3.783,0.093c0.71,0.004,1.441,0.007,2.258,0.025c0.618,0.014,1.251,0.046,1.891,0.079	c3.311,0.172,6.725,0.345,8.688-2.096c1.278-1.588,1.398-3.986,1.503-6.103l0.006-0.104c0.072-1.47-0.108-4.011-0.255-6.053	c-0.067-0.951-0.13-1.825-0.161-2.5c-0.189-3.96-0.156-4.591-0.031-6.939c0.043-0.828,0.099-1.87,0.158-3.355	c0.127-3.103-0.061-9.427-1.083-10.7c-1.077-1.343-2.884-1.883-6.201-1.83c-2.1,0.026-3.63,0.182-5.109,0.332	c-1.618,0.163-3.271,0.329-5.644,0.32l-7.176-0.052c-0.661-0.003-1.61-0.077-2.616-0.155c-1.092-0.085-2.22-0.177-2.923-0.162	c-1.163,0.019-4.156,0.096-5.476,0.203C6.594,4.646,5.314,5.527,4.811,6.561C4.655,6.88,4.579,7.249,4.498,7.64	c-0.03,0.143-0.06,0.286-0.094,0.428C4.304,8.49,4.398,9.702,4.509,11.105c0.126,1.609,0.282,3.613,0.261,5.671	c-0.033,3.234-0.004,6.915,0.021,9.872c0.014,1.77,0.026,3.276,0.021,4.269C4.806,32.224,4.75,33.414,4.7,34.464	c-0.086,1.83-0.153,3.275,0.05,4.541c0.522,3.238,2.316,4.721,5.482,4.58l0.024-0.001c2.57,0,3.342,0.043,4.087,0.085	c0.706,0.04,1.372,0.077,3.559,0.075c1.678-0.002,2.96-0.073,4.092-0.136C22.931,43.557,23.781,43.51,24.692,43.51z"/><path fill="#010101" d="M17.907,40.173c-2.094,0-3.932-0.086-4.924-0.263c-0.658-0.116-1.155-0.662-1.206-1.328	c-0.088-1.128-0.058-3.437-0.022-6.109c0.036-2.801,0.078-5.975-0.009-8.47c-0.005-0.157-0.018-0.214-0.028-0.234	c-0.013,0.023-0.291,0.018-0.41,0.016l-0.189-0.006c-0.609-0.039-0.919-0.021-1.243-0.006c-0.303,0.016-0.612,0.03-1.144,0.011	c-0.474-0.019-1.012-0.367-1.09-0.919c-0.042-0.3,0.064-0.617,0.298-0.896c3.085-3.651,5.94-5.861,8.964-8.201	c1.014-0.785,2.041-1.58,3.096-2.446c0.55-0.45,0.987-0.836,1.353-1.158c1.364-1.2,1.93-1.696,3.499-1.218	c0.599,0.183,1.08,0.562,1.505,0.896l6.146,4.839c0.015-0.461,0.059-0.951,0.1-1.41c0.042-0.467,0.082-0.902,0.082-1.233	c0-1.242,2.455-1.417,2.734-1.433c1.679-0.092,1.987,0.492,2.028,0.849c0.191,1.684,0.178,3.174,0.166,4.371	c-0.013,1.364-0.024,2.542,0.322,2.893c0.334,0.337,0.808,0.634,1.311,0.947c1.004,0.627,2.142,1.338,2.235,2.584	c0.001,0.318,0.001,1.051-3.486,1.133c-0.032,1.823,0.083,3.46,0.194,5.046c0.201,2.85,0.408,5.796-0.246,9.824	c-0.052,0.325-0.155,0.578-0.317,0.772c-0.514,0.624-1.784,0.667-3.144,0.666l-0.386,0.001c-1.569,0.03-2.956,0.049-4.341,0.068	c-1.413,0.02-2.824,0.038-4.425,0.069C23.13,40.056,20.345,40.173,17.907,40.173z M10.443,22.755c0.201,0,0.438,0.007,0.737,0.025	l0.147,0.005c0.429,0.008,0.804,0.032,1.053,0.241c0.344,0.286,0.358,0.729,0.365,0.942c0.087,2.519,0.045,5.705,0.009,8.518	c-0.035,2.648-0.065,4.936,0.019,6.019c0.017,0.214,0.172,0.383,0.385,0.421c2.044,0.363,8.145,0.313,12.09-0.094	c0.014-0.002,0.028-0.003,0.042-0.003c1.611-0.031,3.03-0.051,4.451-0.07c1.383-0.019,2.768-0.038,4.335-0.068l0.408-0.001	c1.425,0.008,2.2-0.097,2.37-0.303c0.03-0.037,0.072-0.117,0.101-0.295c0.636-3.915,0.441-6.674,0.236-9.595	c-0.124-1.748-0.251-3.557-0.185-5.625c0.009-0.27,0.229-0.482,0.497-0.484c1.326-0.008,2.503-0.151,2.942-0.296	c-0.176-0.607-0.934-1.081-1.731-1.579c-0.528-0.331-1.075-0.673-1.491-1.093c-0.64-0.646-0.628-1.823-0.611-3.604	c0.011-1.143,0.024-2.559-0.147-4.134c-0.22-0.086-0.862-0.146-1.678,0.003c-0.723,0.132-1.066,0.341-1.119,0.421	c0.016,0.286-0.025,0.754-0.07,1.254c-0.074,0.825-0.158,1.76-0.049,2.296c0.042,0.205-0.05,0.415-0.228,0.525	c-0.178,0.109-0.406,0.098-0.572-0.033l-7.013-5.521c-0.373-0.293-0.759-0.597-1.178-0.725c-1.038-0.318-1.239-0.14-2.546,1.011	c-0.373,0.329-0.819,0.722-1.379,1.182c-1.062,0.872-2.098,1.673-3.119,2.463c-2.979,2.307-5.795,4.485-8.811,8.055	c-0.054,0.064-0.07,0.112-0.071,0.123l0,0c0.01,0,0.076,0.046,0.139,0.048c0.486,0.02,0.771,0.005,1.051-0.009	C10.01,22.765,10.2,22.755,10.443,22.755z"/><path fill="#010101" d="M24.9,36.99c-0.002,0-0.004,0-0.006,0l0.006-0.5l-0.096,0.499l-8.317-0.091	c-0.371-0.004-1.146-0.011-1.55-0.614c-0.202-0.303-0.229-0.642-0.237-0.935l-0.013-0.418c-0.093-2.979-0.18-5.791-0.053-8.827	c0.037-0.872,0.053-1.658,0.065-2.328c0.03-1.559,0.049-2.205,0.223-2.558c0.693-1.413,1.96-2.54,3.226-3.548	c0.785-0.625,1.474-1.231,2.14-1.818c1.124-0.989,2.185-1.924,3.6-2.867c0.171-0.114,0.429-0.286,0.758-0.303	c0.299-0.014,0.556,0.103,0.769,0.215c1.543,0.822,2.868,1.976,4.15,3.092c1.385,1.204,2.691,2.342,4.255,3.108l0.093,0.046	c0.512,0.249,1.147,0.559,1.435,1.2c0.163,0.37,0.167,0.757,0.17,1.067c0.017,1.863-0.059,3.526-0.131,5.135	c-0.072,1.599-0.146,3.252-0.13,5.093c0.003,0.392,0.039,0.908,0.073,1.425c0.037,0.538,0.072,1.076,0.076,1.484	c0.003,0.269,0.007,0.606-0.121,0.938c-0.455,1.173-2.011,1.198-2.522,1.206c-1.425,0.022-2.688,0.086-3.908,0.148	c-1.23,0.062-2.502,0.127-3.945,0.149C24.905,36.99,24.903,36.99,24.9,36.99z M24.699,13.681c-0.001,0-0.002,0-0.003,0	c-0.054,0.003-0.184,0.09-0.254,0.137c-1.359,0.906-2.396,1.819-3.493,2.786c-0.675,0.595-1.373,1.21-2.178,1.851	c-1.175,0.935-2.345,1.97-2.951,3.206c-0.083,0.201-0.102,1.185-0.12,2.136c-0.014,0.677-0.028,1.47-0.065,2.352	c-0.127,2.998-0.04,5.794,0.052,8.753l0.014,0.419c0.003,0.12,0.009,0.32,0.068,0.409c0.11,0.164,0.56,0.168,0.729,0.17l8.318,0.091	L24.9,36.49l-0.008-0.5c1.426-0.022,2.688-0.086,3.91-0.148c1.229-0.062,2.501-0.127,3.943-0.149	c0.925-0.015,1.465-0.206,1.605-0.567c0.059-0.152,0.056-0.363,0.054-0.567c-0.003-0.393-0.039-0.909-0.073-1.426	c-0.037-0.538-0.072-1.076-0.076-1.484c-0.017-1.867,0.059-3.534,0.131-5.146c0.071-1.596,0.146-3.245,0.13-5.081	c-0.002-0.24-0.005-0.49-0.084-0.67c-0.138-0.309-0.555-0.511-0.958-0.707l-0.096-0.047c-1.681-0.825-3.099-2.06-4.471-3.253	c-1.24-1.079-2.522-2.194-3.963-2.962C24.89,13.752,24.756,13.681,24.699,13.681z"/><path fill="#f3ad20" d="M24.299,17.892c-1.558,1.467-3.073,2.979-4.588,4.49c-0.295,0.294-0.598,0.6-0.753,0.988	c-0.132,0.331-0.145,0.696-0.155,1.052c-0.071,2.567-0.072,5.135,0,7.702c0.013,0.456,0.076,0.995,0.478,1.212	c0.15,0.081,0.324,0.1,0.494,0.117c3.73,0.375,7.497,0.381,11.228,0.016c0.112-0.011,0.23-0.024,0.322-0.09	c0.122-0.088,0.188-0.243,0.2-0.393c0.183-2.297-0.01-3.885-0.024-5.907c-0.01-1.426,0.395-2.932-0.214-4.222	c-0.405-0.856-1.601-1.584-2.356-2.156c-1.079-0.818-2.059-1.699-3.149-2.503C25.421,17.933,24.885,17.34,24.299,17.892"/><path fill="#febf10" d="M24.841,30.566c0.838,0.041,2.214-0.064,3.052-0.023c0.226,0.011,0.477,0.013,0.646-0.137	c0.165-0.146,0.196-0.388,0.216-0.607c0.069-0.749-0.313-2.154-0.244-2.903c0.071-0.771-0.213-1.89-0.342-2.131	c-0.434-0.813-0.919-1.108-1.552-1.617c-0.537-0.432-1.171-1.177-1.718-1.164c-0.367,0.009-0.794,0.541-1.093,0.754	c-0.533,0.38-1.179,1.277-1.652,1.73c-0.123,0.118-0.247,0.243-0.307,0.402c-0.065,0.171-0.05,0.36-0.034,0.542	c0.061,0.688-0.058,1.324,0.002,2.012c0.088,0.998-0.041,2.068,0.358,2.987c0.043,0.099,0.097,0.205,0.196,0.25	c0.079,0.036,0.171,0.026,0.257,0.015C23.066,30.618,24.401,30.622,24.841,30.566"/><path fill="#010101" d="M25.473,34.237c-1.92,0-3.841-0.096-5.748-0.288c-0.184-0.018-0.437-0.042-0.682-0.174	c-0.705-0.382-0.73-1.295-0.74-1.639c-0.07-2.57-0.07-5.171,0.001-7.729c0.01-0.357,0.022-0.803,0.191-1.225	c0.194-0.488,0.565-0.858,0.863-1.155c1.483-1.479,3.018-3.011,4.599-4.5c0.825-0.777,1.637-0.119,1.983,0.16l0.137,0.108	c0.595,0.438,1.156,0.898,1.72,1.36c0.471,0.386,0.942,0.773,1.435,1.146c0.138,0.104,0.291,0.214,0.451,0.329	c0.745,0.534,1.672,1.198,2.056,2.011c0.488,1.035,0.404,2.145,0.322,3.218c-0.031,0.407-0.063,0.814-0.061,1.215	c0.005,0.656,0.028,1.266,0.051,1.868c0.048,1.232,0.097,2.507-0.029,4.082c-0.024,0.314-0.172,0.592-0.405,0.76	c-0.201,0.144-0.418,0.166-0.562,0.181C29.202,34.146,27.338,34.237,25.473,34.237z M24.805,18.165c-0.065,0-0.107,0.039-0.162,0.09	c0,0.001,0,0.001,0,0.001c-1.57,1.479-3.1,3.005-4.578,4.48c-0.257,0.255-0.522,0.52-0.641,0.817	c-0.104,0.257-0.112,0.574-0.12,0.881c-0.07,2.541-0.071,5.123-0.001,7.675c0.013,0.45,0.085,0.715,0.216,0.786	c0.066,0.036,0.198,0.049,0.305,0.059c3.694,0.371,7.44,0.378,11.131,0.017c0.032-0.003,0.091-0.009,0.109-0.016	c0.083-1.526,0.037-2.715-0.012-3.973c-0.023-0.613-0.047-1.233-0.052-1.9c-0.003-0.428,0.029-0.863,0.063-1.298	c0.075-0.986,0.146-1.919-0.229-2.714c-0.273-0.578-1.083-1.159-1.733-1.626c-0.168-0.12-0.328-0.235-0.473-0.345	c-0.503-0.381-0.984-0.776-1.466-1.17c-0.549-0.451-1.098-0.901-1.679-1.329l-0.172-0.135C25.033,18.24,24.896,18.165,24.805,18.165	z M24.3,17.892h0.01H24.3z"/><path fill="#010101" d="M22.5,31.186c-0.101,0-0.218-0.016-0.339-0.07c-0.284-0.133-0.398-0.396-0.446-0.508	c-0.322-0.74-0.341-1.529-0.359-2.292c-0.007-0.285-0.014-0.57-0.038-0.85c-0.034-0.377-0.019-0.73-0.003-1.073	c0.014-0.309,0.028-0.617,0-0.938c-0.018-0.206-0.042-0.485,0.065-0.765c0.096-0.25,0.264-0.426,0.428-0.583	c0.174-0.167,0.371-0.396,0.577-0.636c0.371-0.43,0.755-0.874,1.131-1.142c0.077-0.055,0.162-0.135,0.254-0.219	c0.316-0.289,0.675-0.617,1.118-0.628c0.597-0.02,1.14,0.466,1.651,0.931c0.134,0.122,0.266,0.242,0.392,0.344l0.27,0.213	c0.51,0.397,0.991,0.773,1.41,1.559c0.186,0.348,0.476,1.577,0.398,2.412c-0.029,0.315,0.046,0.834,0.119,1.335	c0.084,0.583,0.164,1.135,0.125,1.568c-0.022,0.243-0.061,0.65-0.382,0.936c-0.331,0.295-0.769,0.276-1.002,0.262	c-0.412-0.018-0.954-0.003-1.494,0.013c-0.546,0.016-1.091,0.032-1.517,0.013c-0.24,0.025-0.671,0.04-1.103,0.053	c-0.426,0.013-0.854,0.023-1.065,0.051C22.64,31.177,22.574,31.186,22.5,31.186z M24.915,22.483c-0.002,0-0.003,0-0.004,0	c-0.09,0.021-0.335,0.245-0.467,0.365c-0.125,0.115-0.244,0.222-0.35,0.296c-0.277,0.198-0.636,0.614-0.953,0.981	c-0.229,0.265-0.449,0.519-0.642,0.703c-0.064,0.062-0.162,0.155-0.186,0.219c-0.025,0.065-0.014,0.207-0.004,0.32	c0.033,0.375,0.018,0.728,0.003,1.068c-0.015,0.324-0.028,0.63,0,0.941c0.026,0.301,0.034,0.606,0.041,0.913	c0.017,0.691,0.033,1.346,0.271,1.905c0.23-0.049,0.666-0.063,1.101-0.076c0.422-0.013,0.843-0.023,1.052-0.05	c0.028-0.005,0.057-0.006,0.086-0.003c0.409,0.018,0.945,0.003,1.481-0.013c0.57-0.017,1.141-0.033,1.571-0.011	c0.16,0.007,0.262,0.003,0.296-0.016c0.021-0.036,0.039-0.217,0.044-0.276c0.029-0.314-0.046-0.832-0.119-1.332	c-0.084-0.584-0.164-1.136-0.125-1.569c0.063-0.681-0.205-1.693-0.285-1.852c-0.318-0.597-0.664-0.867-1.143-1.24l-0.281-0.222	c-0.141-0.113-0.287-0.246-0.438-0.383C25.59,22.903,25.128,22.483,24.915,22.483z"/></svg>